<svg xmlns="http://www.w3.org/2000/svg" viewBox="0 0 434.38 434.38"><defs><style>.cls-1{fill:#eaeade;}.cls-2{fill:#091869;}</style></defs><title>Asset 25</title><g id="Layer_2" data-name="Layer 2"><g id="LINEA_GRÁFICA" data-name="LINEA GRÁFICA"><circle class="cls-1" cx="217.19" cy="217.19" r="217.19"/><path class="cls-2" d="M215.92,389.58c-25.36,0-50.19-10.83-68.47-29.94a99.25,99.25,0,0,1-27.32-75.53,7.5,7.5,0,1,1,15,1.08,84.16,84.16,0,0,0,23.21,64.08c15.93,16.66,37.66,25.86,59.62,25.29,21.27-.58,42-10.41,56.92-27a83.32,83.32,0,0,0,21.4-62.83,7.5,7.5,0,1,1,14.95-1.18,98.15,98.15,0,0,1-25.2,74c-17.64,19.61-42.3,31.26-67.66,31.94Z"/><path class="cls-2" d="M117.09,308a28.34,28.34,0,0,1-10.68-2c-15.8-6.37-23.07-26.55-24.61-43.3-1.43-15.52,1.34-34.83,13.39-42.49,7-4.48,17-4.56,24.71-.2,9.87,5.56,15.08,18.32,13.25,32.49a7.5,7.5,0,0,1-14.88-1.92c1-8-1.28-15-5.74-17.5-2.86-1.61-6.94-1.7-9.29-.21-4.18,2.66-7.87,13.53-6.5,28.46,1.4,15.28,7.54,27.64,15.28,30.76,3.49,1.4,8,1.19,13.25-.64a7.5,7.5,0,0,1,4.89,14.18A40,40,0,0,1,117.09,308Z"/><path class="cls-2" d="M314.63,308a40,40,0,0,1-13.07-2.38,7.5,7.5,0,1,1,4.89-14.18c5.3,1.83,9.76,2,13.25.64,7.74-3.12,13.88-15.48,15.28-30.76,1.37-14.93-2.32-25.8-6.5-28.46-2.35-1.49-6.43-1.4-9.29.21-4.46,2.51-6.77,9.54-5.75,17.5a7.5,7.5,0,1,1-14.87,1.92c-1.83-14.17,3.38-26.93,13.25-32.49,7.73-4.36,17.66-4.28,24.71.2,12,7.66,14.81,27,13.39,42.49-1.54,16.75-8.81,36.93-24.61,43.3A28.37,28.37,0,0,1,314.63,308Z"/><ellipse class="cls-2" cx="255.09" cy="242.68" rx="9.12" ry="11.88"/><ellipse class="cls-2" cx="175.21" cy="242.68" rx="9.12" ry="11.88"/><path class="cls-2" d="M241.26,219.05a7.5,7.5,0,0,1-4.77-13.29,29.4,29.4,0,0,1,37.12-.22,7.5,7.5,0,1,1-9.38,11.7,14.76,14.76,0,0,0-9-3.19h0a14.67,14.67,0,0,0-9.17,3.3A7.53,7.53,0,0,1,241.26,219.05Z"/><path class="cls-2" d="M161.38,219.05a7.5,7.5,0,0,1-4.76-13.29,29.57,29.57,0,0,1,18.7-6.71h.08a29.63,29.63,0,0,1,18.34,6.49,7.5,7.5,0,1,1-9.39,11.7,14.72,14.72,0,0,0-9-3.19h0a14.73,14.73,0,0,0-9.18,3.3A7.49,7.49,0,0,1,161.38,219.05Z"/><path class="cls-2" d="M213.64,303.05h-.58a24,24,0,0,1-10.31-2.63,7.5,7.5,0,0,1,6.88-13.34,8.64,8.64,0,0,0,3.79,1,8.84,8.84,0,0,0,3.48-.64,7.5,7.5,0,0,1,5.62,13.91A23.56,23.56,0,0,1,213.64,303.05Z"/><path class="cls-2" d="M213.87,336.48h-.7a132.08,132.08,0,0,1-36-5.23,7.5,7.5,0,1,1,4.17-14.4,116.84,116.84,0,0,0,66.72-.47,7.5,7.5,0,1,1,4.38,14.35A132.14,132.14,0,0,1,213.87,336.48Z"/><path class="cls-2" d="M306.21,269.05a7.5,7.5,0,0,1-7.49-7.33c-.37-15.94-1.36-32.06-3-47.91-1.73-17.15-4.23-34.43-7.41-51.37a7.5,7.5,0,1,1,14.74-2.77c3.26,17.35,5.82,35.06,7.6,52.63,1.64,16.24,2.66,32.75,3,49.08a7.5,7.5,0,0,1-7.33,7.67Z"/><path class="cls-2" d="M126.71,266.05h0a7.5,7.5,0,0,1-7.48-7.52,453.83,453.83,0,0,1,2.55-46.77c1.42-13.42,3.47-26.93,6.1-40.17a7.5,7.5,0,1,1,14.71,2.92c-2.53,12.8-4.52,25.87-5.9,38.83a441,441,0,0,0-2.46,45.23A7.49,7.49,0,0,1,126.71,266.05Z"/><path class="cls-2" d="M99.7,233.55a7.5,7.5,0,0,1-7.46-6.84,221.95,221.95,0,0,1,4.14-66.24,7.5,7.5,0,0,1,14.67,3.16,207,207,0,0,0-3.87,61.77,7.48,7.48,0,0,1-6.81,8.12C100.15,233.54,99.92,233.55,99.7,233.55Z"/><path class="cls-2" d="M199.81,186.11c17.69-17.61,28.14-42,25.76-67.16-2.61-27.53-17.72-52.16-39-69.36-3.18-2.56-7.49-3-10.61,0-2.66,2.61-3.14,8.07,0,10.61,18,14.54,32.41,35.17,34.64,58.75,2,21.43-6.25,41.51-21.36,56.55-6.85,6.82,3.75,17.43,10.6,10.61Z"/><path class="cls-2" d="M143.61,169.18c-8.86-15-27-20-42.68-13.3-3.76,1.6-4.51,7.06-2.69,10.26,2.2,3.88,6.55,4.27,10.26,2.69-1.46.62,2.07-.59,2.41-.67a17.71,17.71,0,0,1,12.71,1.69,18.05,18.05,0,0,1,7,6.9c4.92,8.3,17.89.76,13-7.57Z"/><path class="cls-2" d="M138,202c-.46-12.84,2.94-26.41,13.89-34.26,9.95-7.12,23.13-9,35-10.28,16.33-1.76,32.87-2.85,49.29-3.36,13-.4,27.43-.75,39.56,4.65,14.15,6.3,18.68,20.69,17.95,35.25-.49,9.65,14.51,9.62,15,0,.85-17-4.48-33.83-18.55-44.17-12.42-9.12-29.06-10.68-44-10.85-18.95-.21-38.18,1.36-57,3.25-14.75,1.48-30.67,3.48-43.44,11.66C129.33,164.33,122.34,183.07,123,202c.34,9.62,15.35,9.67,15,0Z"/><path class="cls-2" d="M338.24,146.41c-17.32-7.06-38.08-2-50.56,11.81-6.45,7.15,4.13,17.79,10.61,10.6,9.25-10.24,23.26-13.13,36-7.95,3.77,1.54,8.2-1.67,9.22-5.24,1.23-4.28-1.5-7.7-5.24-9.22Z"/><path class="cls-2" d="M336.48,191.83a7.49,7.49,0,0,1-7.49-7.44,125.82,125.82,0,0,1,1.75-21.93,98.64,98.64,0,0,1,4.76-18,49.28,49.28,0,0,0,1.89-6.15C340.87,121.65,327,99.92,311.79,90c-6.69-4.35-11.46-5-21.89-6.41-4.18-.57-9.39-1.27-15.71-2.38C248,76.68,235.56,71.08,225.52,66.58c-8.17-3.66-13.57-6.08-23.83-6.66-37.46-2.16-82.65,24.53-89.56,52.82-1.44,5.91-2.32,22.64-3.91,53-.32,6-.59,12.07-.82,18a7.5,7.5,0,1,1-15-.58c.23-6,.51-12.17.83-18.24,1.75-33.31,2.55-48.51,4.32-55.79,8.69-35.59,59.7-66.82,105-64.24,13,.74,20.47,4.09,29.1,8,9.28,4.16,20.82,9.33,45.13,13.59,6,1,10.87,1.71,15.13,2.29,11.17,1.51,18.54,2.51,28.06,8.7,19.67,12.8,37.06,40.19,32.1,63.88a60.9,60.9,0,0,1-2.42,8.07A84,84,0,0,0,345.53,165a109.33,109.33,0,0,0-1.54,19.3,7.51,7.51,0,0,1-7.44,7.56Z"/><polygon class="cls-2" points="103.71 141.64 111.03 96.67 143.3 67.41 184.34 52.3 228.11 59.53 276.18 68.97 304 78.44 336.14 100.3 344.08 128.81 336.25 150.69 309.51 150.69 286.64 160.37 237.53 148.05 184.34 152.49 144.18 168.97 121.44 160.96 101.3 154.44 103.71 141.64"/><rect class="cls-2" x="99.7" y="152.33" width="31.26" height="72"/><rect class="cls-2" x="300.96" y="152.33" width="31.26" height="72"/></g></g></svg>